{
  "accessors": [
    {
      "bufferView": 2,
      "componentType": 5126,
      "count": 1662,
      "max": [
        0.014800000004470348,
        0.0194109994918108,
        -0.014876999892294407
      ],
      "min": [
        -0.01573600061237812,
        -0.009813999757170677,
        -0.05410299822688103
      ],
      "type": "VEC3"
    },
    {
      "bufferView": 2,
      "byteOffset": 19944,
      "componentType": 5126,
      "count": 1662,
      "max": [
        0.9998440146446228,
        0.9977126121520996,
        0.9991040825843811
      ],
      "min": [
        -0.999843180179596,
        -0.9984552264213562,
        -0.9973741769790649
      ],
      "type": "VEC3"
    },
    {
      "bufferView": 3,
      "componentType": 5126,
      "count": 1662,
      "max": [
        0.9946262836456299,
        0.9986903071403503,
        0.999271810054779,
        1.0
      ],
      "min": [
        -0.9972319602966309,
        -0.9994367361068726,
        -0.9987937211990356,
        -1.0
      ],
      "type": "VEC4"
    },
    {
      "bufferView": 1,
      "componentType": 5126,
      "count": 1662,
      "max": [
        0.9965819716453552,
        0.9967079758644104
      ],
      "min": [
        0.004416999872773886,
        0.005371000152081251
      ],
      "type": "VEC2"
    },
    {
      "bufferView": 0,
      "componentType": 5125,
      "count": 6081,
      "type": "SCALAR"
    },
    {
      "bufferView": 2,
      "byteOffset": 39888,
      "componentType": 5126,
      "count": 348,
      "max": [
        0.01754000037908554,
        0.008138000033795834,
        0.002624999964609742
      ],
      "min": [
        -0.0037879999727010727,
        -0.002268000040203333,
        -0.037087999284267426
      ],
      "type": "VEC3"
    },
    {
      "bufferView": 2,
      "byteOffset": 44064,
      "componentType": 5126,
      "count": 348,
      "max": [
        0.9954963326454163,
        1.0,
        0.9954963326454163
      ],
      "min": [
        -0.9974976181983948,
        -1.0,
        -0.9887908101081848
      ],
      "type": "VEC3"
    },
    {
      "bufferView": 1,
      "byteOffset": 13296,
      "componentType": 5126,
      "count": 348,
      "max": [
        0.9672849774360657,
        0.9875869750976563
      ],
      "min": [
        0.003074999898672104,
        0.0029299999587237835
      ],
      "type": "VEC2"
    },
    {
      "bufferView": 0,
      "byteOffset": 24324,
      "componentType": 5125,
      "count": 942,
      "type": "SCALAR"
    }
  ],
  "asset": {
    "extras": {
      "author": "Luquita (https://sketchfab.com/speedmodel)",
      "license": "CC-BY-4.0 (http://creativecommons.org/licenses/by/4.0/)",
      "source": "https://sketchfab.com/3d-models/valorant-raze-chibi-keychain-ba5d1eeb97174a2f8a3378ff101800f5",
      "title": "Valorant - Raze Chibi (Keychain)"
    },
    "generator": "Sketchfab-12.67.0",
    "version": "2.0"
  },
  "bufferViews": [
    {
      "buffer": 0,
      "byteLength": 28092,
      "name": "floatBufferViews",
      "target": 34963
    },
    {
      "buffer": 0,
      "byteLength": 16080,
      "byteOffset": 28092,
      "byteStride": 8,
      "name": "floatBufferViews",
      "target": 34962
    },
    {
      "buffer": 0,
      "byteLength": 48240,
      "byteOffset": 44172,
      "byteStride": 12,
      "name": "floatBufferViews",
      "target": 34962
    },
    {
      "buffer": 0,
      "byteLength": 26592,
      "byteOffset": 92412,
      "byteStride": 16,
      "name": "floatBufferViews",
      "target": 34962
    }
  ],
  "buffers": [
    {
      "byteLength": 119004,
      "uri": "scene.bin"
    }
  ],
  "images": [
    {
      "uri": "textures/Buddy_ChibiRaze_MI_baseColor.png"
    },
    {
      "uri": "textures/Buddy_ChibiRaze_MI_metallicRoughness.png"
    },
    {
      "uri": "textures/Buddy_ChibiRaze_MI_normal.png"
    }
  ],
  "materials": [
    {
      "doubleSided": true,
      "name": "Buddy_Anime_Plastic_MI",
      "pbrMetallicRoughness": {
        "baseColorFactor": [
          0.00963327435565365,
          0.00963327435565365,
          0.00963327435565365,
          1.0
        ],
        "metallicFactor": 0.0
      }
    },
    {
      "doubleSided": true,
      "name": "Buddy_ChibiRaze_MI",
      "normalTexture": {
        "index": 2
      },
      "pbrMetallicRoughness": {
        "baseColorTexture": {
          "index": 0
        },
        "metallicRoughnessTexture": {
          "index": 1
        },
        "roughnessFactor": 0.29963853370543997
      }
    }
  ],
  "meshes": [
    {
      "name": "Object_0",
      "primitives": [
        {
          "attributes": {
            "NORMAL": 1,
            "POSITION": 0,
            "TANGENT": 2,
            "TEXCOORD_0": 3
          },
          "indices": 4,
          "material": 1,
          "mode": 4
        }
      ]
    },
    {
      "name": "Object_1",
      "primitives": [
        {
          "attributes": {
            "NORMAL": 6,
            "POSITION": 5,
            "TEXCOORD_0": 7
          },
          "indices": 8,
          "material": 0,
          "mode": 4
        }
      ]
    }
  ],
  "nodes": [
    {
      "children": [
        1
      ],
      "matrix": [
        1.0,
        0.0,
        0.0,
        0.0,
        0.0,
        2.220446049250313e-16,
        -1.0,
        0.0,
        0.0,
        1.0,
        2.220446049250313e-16,
        0.0,
        0.0,
        0.0,
        0.0,
        1.0
      ],
      "name": "Sketchfab_model"
    },
    {
      "children": [
        2,
        3
      ],
      "name": "untitled.obj.cleaner.materialmerger.gles"
    },
    {
      "mesh": 0,
      "name": "Object_2"
    },
    {
      "mesh": 1,
      "name": "Object_3"
    }
  ],
  "samplers": [
    {
      "magFilter": 9729,
      "minFilter": 9987,
      "wrapS": 10497,
      "wrapT": 10497
    }
  ],
  "scene": 0,
  "scenes": [
    {
      "name": "Sketchfab_Scene",
      "nodes": [
        0
      ]
    }
  ],
  "textures": [
    {
      "sampler": 0,
      "source": 0
    },
    {
      "sampler": 0,
      "source": 1
    },
    {
      "sampler": 0,
      "source": 2
    }
  ]
}
