{
  "accessors": [
    {
      "bufferView": 2,
      "componentType": 5126,
      "count": 2032,
      "max": [
        1.9653942584991455,
        0.05686694383621216,
        0.4079588055610657
      ],
      "min": [
        0.2436922937631607,
        -0.05686694383621216,
        -0.16669124364852905
      ],
      "type": "VEC3"
    },
    {
      "bufferView": 2,
      "byteOffset": 24384,
      "componentType": 5126,
      "count": 2032,
      "max": [
        0.9917386770248413,
        1.0,
        0.9999997019767761
      ],
      "min": [
        -0.9932057857513428,
        -1.0,
        -0.9998053908348083
      ],
      "type": "VEC3"
    },
    {
      "bufferView": 1,
      "componentType": 5126,
      "count": 2032,
      "max": [
        0.9464462995529175,
        0.9437925815582275
      ],
      "min": [
        0.20797336101531982,
        0.0
      ],
      "type": "VEC2"
    },
    {
      "bufferView": 0,
      "componentType": 5125,
      "count": 3138,
      "type": "SCALAR"
    },
    {
      "bufferView": 2,
      "byteOffset": 48768,
      "componentType": 5126,
      "count": 1610,
      "max": [
        1.9861470460891724,
        0.0617520734667778,
        0.4031071364879608
      ],
      "min": [
        -1.62639319896698,
        -0.05686694383621216,
        -0.1559777855873108
      ],
      "type": "VEC3"
    },
    {
      "bufferView": 2,
      "byteOffset": 68088,
      "componentType": 5126,
      "count": 1610,
      "max": [
        0.9999435544013977,
        1.0,
        0.9998405575752258
      ],
      "min": [
        -0.9999433755874634,
        -1.0,
        -0.9999110698699951
      ],
      "type": "VEC3"
    },
    {
      "bufferView": 1,
      "byteOffset": 16256,
      "componentType": 5126,
      "count": 1610,
      "max": [
        1.0,
        1.0
      ],
      "min": [
        0.0,
        0.0
      ],
      "type": "VEC2"
    },
    {
      "bufferView": 0,
      "byteOffset": 12552,
      "componentType": 5125,
      "count": 2652,
      "type": "SCALAR"
    },
    {
      "bufferView": 2,
      "byteOffset": 87408,
      "componentType": 5126,
      "count": 161,
      "max": [
        1.8012861013412476,
        0.05505071207880974,
        0.20232892036437988
      ],
      "min": [
        0.3554907739162445,
        -0.05505071207880974,
        -0.1537778526544571
      ],
      "type": "VEC3"
    },
    {
      "bufferView": 2,
      "byteOffset": 89340,
      "componentType": 5126,
      "count": 161,
      "max": [
        0.7469099164009094,
        1.0,
        0.7270364761352539
      ],
      "min": [
        -0.7467292547225952,
        -1.0,
        -0.9999415278434753
      ],
      "type": "VEC3"
    },
    {
      "bufferView": 1,
      "byteOffset": 29136,
      "componentType": 5126,
      "count": 161,
      "max": [
        0.9008771181106567,
        0.9313410520553589
      ],
      "min": [
        0.5557670593261719,
        0.0
      ],
      "type": "VEC2"
    },
    {
      "bufferView": 0,
      "byteOffset": 23160,
      "componentType": 5125,
      "count": 282,
      "type": "SCALAR"
    },
    {
      "bufferView": 2,
      "byteOffset": 91272,
      "componentType": 5126,
      "count": 126,
      "max": [
        0.5920017957687378,
        0.021832533180713654,
        -0.08760586380958557
      ],
      "min": [
        -1.9861923456192017,
        -0.021832533180713654,
        -0.16669124364852905
      ],
      "type": "VEC3"
    },
    {
      "bufferView": 2,
      "byteOffset": 92784,
      "componentType": 5126,
      "count": 126,
      "max": [
        0.5148440599441528,
        0.9077795147895813,
        0.8917410373687744
      ],
      "min": [
        -0.49496784806251526,
        -0.9077796339988708,
        -0.9999738931655884
      ],
      "type": "VEC3"
    },
    {
      "bufferView": 1,
      "byteOffset": 30424,
      "componentType": 5126,
      "count": 126,
      "max": [
        0.8764858245849609,
        0.9329494833946228
      ],
      "min": [
        0.32172706723213196,
        0.002050340175628662
      ],
      "type": "VEC2"
    },
    {
      "bufferView": 0,
      "byteOffset": 24288,
      "componentType": 5125,
      "count": 222,
      "type": "SCALAR"
    },
    {
      "bufferView": 2,
      "byteOffset": 94296,
      "componentType": 5126,
      "count": 862,
      "max": [
        0.7455968260765076,
        0.021832533180713654,
        0.4337277412414551
      ],
      "min": [
        -1.860337495803833,
        -0.021832533180713654,
        -0.13265205919742584
      ],
      "type": "VEC3"
    },
    {
      "bufferView": 2,
      "byteOffset": 104640,
      "componentType": 5126,
      "count": 862,
      "max": [
        0.8272868990898132,
        1.0,
        0.9999958276748657
      ],
      "min": [
        -0.7789357304573059,
        -1.0,
        -0.9999958872795105
      ],
      "type": "VEC3"
    },
    {
      "bufferView": 3,
      "componentType": 5126,
      "count": 862,
      "max": [
        0.8807340264320374,
        0.9997941851615906,
        0.7217904925346375,
        1.0
      ],
      "min": [
        -0.7125858068466187,
        -0.9997941851615906,
        -0.9998218417167664,
        -1.0
      ],
      "type": "VEC4"
    },
    {
      "bufferView": 1,
      "byteOffset": 31432,
      "componentType": 5126,
      "count": 862,
      "max": [
        0.9459137320518494,
        1.0
      ],
      "min": [
        0.0,
        0.0
      ],
      "type": "VEC2"
    },
    {
      "bufferView": 1,
      "byteOffset": 38328,
      "componentType": 5126,
      "count": 862,
      "max": [
        0.9459137320518494,
        1.0
      ],
      "min": [
        0.0,
        0.0
      ],
      "type": "VEC2"
    },
    {
      "bufferView": 0,
      "byteOffset": 25176,
      "componentType": 5125,
      "count": 1374,
      "type": "SCALAR"
    },
    {
      "bufferView": 2,
      "byteOffset": 114984,
      "componentType": 5126,
      "count": 2270,
      "max": [
        1.9913398027420044,
        0.06282107532024384,
        0.4016580283641815
      ],
      "min": [
        0.3097551465034485,
        -0.06282107532024384,
        -0.15622466802597046
      ],
      "type": "VEC3"
    },
    {
      "bufferView": 2,
      "byteOffset": 142224,
      "componentType": 5126,
      "count": 2270,
      "max": [
        0.999977707862854,
        1.0,
        0.9955017566680908
      ],
      "min": [
        -0.9999948740005493,
        -1.0,
        -0.9999110698699951
      ],
      "type": "VEC3"
    },
    {
      "bufferView": 1,
      "byteOffset": 45224,
      "componentType": 5126,
      "count": 2270,
      "max": [
        0.9447742700576782,
        0.9391208291053772
      ],
      "min": [
        0.2079733908176422,
        0.0
      ],
      "type": "VEC2"
    },
    {
      "bufferView": 0,
      "byteOffset": 30672,
      "componentType": 5125,
      "count": 3498,
      "type": "SCALAR"
    },
    {
      "bufferView": 2,
      "byteOffset": 169464,
      "componentType": 5126,
      "count": 60,
      "max": [
        0.6226122379302979,
        0.021832533180713654,
        0.44288575649261475
      ],
      "min": [
        -1.9861923456192017,
        -0.021832533180713654,
        -0.12652269005775452
      ],
      "type": "VEC3"
    },
    {
      "bufferView": 2,
      "byteOffset": 170184,
      "componentType": 5126,
      "count": 60,
      "max": [
        0.4274033010005951,
        0.8693345189094543,
        0.574547290802002
      ],
      "min": [
        -0.27730700373649597,
        -0.8693345189094543,
        0.37271648645401
      ],
      "type": "VEC3"
    },
    {
      "bufferView": 1,
      "byteOffset": 63384,
      "componentType": 5126,
      "count": 60,
      "max": [
        0.921885073184967,
        0.8671582341194153
      ],
      "min": [
        0.6546995639801025,
        0.2978881001472473
      ],
      "type": "VEC2"
    },
    {
      "bufferView": 0,
      "byteOffset": 44664,
      "componentType": 5125,
      "count": 108,
      "type": "SCALAR"
    }
  ],
  "asset": {
    "extras": {
      "author": "jaiswalshaurya1310 (https://sketchfab.com/jaiswalshaurya1310)",
      "license": "CC-BY-NC-4.0 (http://creativecommons.org/licenses/by-nc/4.0/)",
      "source": "https://sketchfab.com/3d-models/valorant-glitchpop-dagger-46a339192aed40bbac2795dc7a1b1a97",
      "title": "Valorant Glitchpop Dagger"
    },
    "generator": "Sketchfab-14.25.0",
    "version": "2.0"
  },
  "bufferViews": [
    {
      "buffer": 0,
      "byteLength": 45096,
      "name": "floatBufferViews",
      "target": 34963
    },
    {
      "buffer": 0,
      "byteLength": 63864,
      "byteOffset": 45096,
      "byteStride": 8,
      "name": "floatBufferViews",
      "target": 34962
    },
    {
      "buffer": 0,
      "byteLength": 170904,
      "byteOffset": 108960,
      "byteStride": 12,
      "name": "floatBufferViews",
      "target": 34962
    },
    {
      "buffer": 0,
      "byteLength": 13792,
      "byteOffset": 279864,
      "byteStride": 16,
      "name": "floatBufferViews",
      "target": 34962
    }
  ],
  "buffers": [
    {
      "byteLength": 293656,
      "uri": "scene.bin"
    }
  ],
  "extensionsUsed": [
    "KHR_texture_transform"
  ],
  "images": [
    {
      "uri": "textures/Carbon_Fiber_baseColor.png"
    },
    {
      "uri": "textures/Carbon_Fiber_normal.png"
    }
  ],
  "materials": [
    {
      "doubleSided": true,
      "name": "Material",
      "pbrMetallicRoughness": {
        "baseColorFactor": [
          0.7058433398854085,
          0.09441768248757768,
          0.8373390532284241,
          1.0
        ],
        "metallicFactor": 0.0
      }
    },
    {
      "doubleSided": true,
      "emissiveFactor": [
        1.0,
        0.665387,
        0.242281
      ],
      "name": "Gold_Stripe",
      "pbrMetallicRoughness": {
        "baseColorFactor": [
          0.3564,
          0.158961,
          0.0512695,
          1.0
        ],
        "roughnessFactor": 0.195455
      }
    },
    {
      "doubleSided": true,
      "emissiveFactor": [
        1.0,
        1.0,
        1.0
      ],
      "name": "Handle_light"
    },
    {
      "doubleSided": true,
      "name": "Material.003",
      "pbrMetallicRoughness": {
        "baseColorFactor": [
          0.0,
          0.0,
          0.0,
          1.0
        ],
        "metallicFactor": 0.0
      }
    },
    {
      "doubleSided": true,
      "name": "Carbon_Fiber",
      "normalTexture": {
        "extensions": {
          "KHR_texture_transform": {
            "scale": [
              10,
              10
            ]
          }
        },
        "index": 1
      },
      "pbrMetallicRoughness": {
        "baseColorTexture": {
          "extensions": {
            "KHR_texture_transform": {
              "scale": [
                10,
                10
              ]
            }
          },
          "index": 0
        },
        "metallicFactor": 0.0,
        "roughnessFactor": 0.445455
      }
    },
    {
      "doubleSided": true,
      "name": "Hand_Grip",
      "pbrMetallicRoughness": {
        "baseColorFactor": [
          0.0,
          0.0,
          0.0,
          1.0
        ],
        "metallicFactor": 0.0
      }
    },
    {
      "doubleSided": true,
      "emissiveFactor": [
        0.0975874,
        0.552011,
        0.564712
      ],
      "name": "Material.002"
    }
  ],
  "meshes": [
    {
      "name": "Object_0",
      "primitives": [
        {
          "attributes": {
            "NORMAL": 1,
            "POSITION": 0,
            "TEXCOORD_0": 2
          },
          "indices": 3,
          "material": 0,
          "mode": 4
        }
      ]
    },
    {
      "name": "Object_1",
      "primitives": [
        {
          "attributes": {
            "NORMAL": 5,
            "POSITION": 4,
            "TEXCOORD_0": 6
          },
          "indices": 7,
          "material": 1,
          "mode": 4
        }
      ]
    },
    {
      "name": "Object_2",
      "primitives": [
        {
          "attributes": {
            "NORMAL": 9,
            "POSITION": 8,
            "TEXCOORD_0": 10
          },
          "indices": 11,
          "material": 2,
          "mode": 4
        }
      ]
    },
    {
      "name": "Object_3",
      "primitives": [
        {
          "attributes": {
            "NORMAL": 13,
            "POSITION": 12,
            "TEXCOORD_0": 14
          },
          "indices": 15,
          "material": 3,
          "mode": 4
        }
      ]
    },
    {
      "name": "Object_4",
      "primitives": [
        {
          "attributes": {
            "NORMAL": 17,
            "POSITION": 16,
            "TANGENT": 18,
            "TEXCOORD_0": 19,
            "TEXCOORD_1": 20
          },
          "indices": 21,
          "material": 4,
          "mode": 4
        }
      ]
    },
    {
      "name": "Object_5",
      "primitives": [
        {
          "attributes": {
            "NORMAL": 23,
            "POSITION": 22,
            "TEXCOORD_0": 24
          },
          "indices": 25,
          "material": 5,
          "mode": 4
        }
      ]
    },
    {
      "name": "Object_6",
      "primitives": [
        {
          "attributes": {
            "NORMAL": 27,
            "POSITION": 26,
            "TEXCOORD_0": 28
          },
          "indices": 29,
          "material": 6,
          "mode": 4
        }
      ]
    }
  ],
  "nodes": [
    {
      "children": [
        1
      ],
      "matrix": [
        1.0,
        0.0,
        0.0,
        0.0,
        0.0,
        2.220446049250313e-16,
        -1.0,
        0.0,
        0.0,
        1.0,
        2.220446049250313e-16,
        0.0,
        0.0,
        0.0,
        0.0,
        1.0
      ],
      "name": "Sketchfab_model"
    },
    {
      "children": [
        2
      ],
      "name": "root"
    },
    {
      "children": [
        3
      ],
      "matrix": [
        1.0,
        0.0,
        0.0,
        0.0,
        0.0,
        2.220446049250313e-16,
        1.0,
        0.0,
        0.0,
        -1.0,
        2.220446049250313e-16,
        0.0,
        0.0,
        0.0,
        0.0,
        1.0
      ],
      "name": "GLTF_SceneRootNode"
    },
    {
      "children": [
        4,
        5,
        6,
        7,
        8,
        9,
        10
      ],
      "matrix": [
        0.7071068531357138,
        0.4999999453368599,
        -0.49999995291164306,
        0.0,
        2.5032576261851958e-08,
        0.7071067688420203,
        0.7071067935310741,
        0.0,
        0.7071067092373735,
        -0.5000000721209296,
        0.5000000296305568,
        0.0,
        0.0,
        5.161510467529297,
        0.0,
        1.0
      ],
      "name": "Cube_0"
    },
    {
      "mesh": 0,
      "name": "Object_4"
    },
    {
      "mesh": 1,
      "name": "Object_5"
    },
    {
      "mesh": 2,
      "name": "Object_6"
    },
    {
      "mesh": 3,
      "name": "Object_7"
    },
    {
      "mesh": 4,
      "name": "Object_8"
    },
    {
      "mesh": 5,
      "name": "Object_9"
    },
    {
      "mesh": 6,
      "name": "Object_10"
    }
  ],
  "samplers": [
    {
      "magFilter": 9729,
      "minFilter": 9987,
      "wrapS": 10497,
      "wrapT": 10497
    }
  ],
  "scene": 0,
  "scenes": [
    {
      "name": "Sketchfab_Scene",
      "nodes": [
        0
      ]
    }
  ],
  "textures": [
    {
      "sampler": 0,
      "source": 0
    },
    {
      "sampler": 0,
      "source": 1
    }
  ]
}
